<svg width="675" height="343" viewBox="0 0 675 343" fill="none" xmlns="http://www.w3.org/2000/svg">
<path d="M311 157L312 156.983L311 157ZM357 58L357.129 57.0084L357 58ZM664.624 341.982C664.89 342.466 665.498 342.642 665.982 342.376L673.868 338.038C674.352 337.772 674.528 337.164 674.262 336.68C673.996 336.196 673.388 336.02 672.904 336.286L665.894 340.142L662.038 333.132C661.772 332.648 661.164 332.472 660.68 332.738C660.196 333.004 660.02 333.612 660.286 334.096L664.624 341.982ZM0.590682 4.49589C51.7592 -0.163355 128.635 1.91541 192.973 23.2492C257.311 44.5832 308.81 85.0409 310 157.017L312 156.983C310.79 83.7592 258.289 42.8002 193.602 21.3508C128.915 -0.0987208 51.7408 -2.16996 0.409318 2.50413L0.590682 4.49589ZM310 157.017C310.374 179.66 307.832 194.477 303.646 203.214C301.559 207.571 299.097 210.347 296.452 211.867C293.825 213.375 290.925 213.699 287.828 212.979C281.556 211.521 274.531 205.783 267.95 197.056C261.399 188.37 255.403 176.874 251.135 164.181C242.585 138.749 241.065 108.806 255.512 87.101C269.903 65.4804 300.421 51.6394 356.871 58.9916L357.129 57.0084C300.329 49.6106 268.847 63.4571 253.847 85.9928C238.904 108.444 240.602 139.126 249.24 164.819C253.566 177.688 259.656 189.38 266.353 198.26C273.02 207.1 280.405 213.307 287.375 214.927C290.9 215.746 294.328 215.393 297.448 213.601C300.548 211.82 303.248 208.674 305.45 204.079C309.84 194.914 312.376 179.716 312 156.983L310 157.017ZM356.871 58.9916C447.177 70.7533 529.064 124.39 585.916 183.667C614.336 213.3 636.467 244.308 650.249 272.138C664.06 300.025 669.388 324.516 664.54 341.221L666.46 341.779C671.528 324.318 665.902 299.238 652.041 271.25C638.152 243.205 615.893 212.033 587.359 182.283C530.303 122.793 448.023 68.8467 357.129 57.0084L356.871 58.9916Z" fill="black"/>
</svg>
