<svg width="207" height="35" viewBox="0 0 207 35" fill="none" xmlns="http://www.w3.org/2000/svg">
<path d="M183.361 28.7396C199.541 43.7996 216.581 20.6696 199.041 11.3196C172.791 -2.68036 139.371 43.3196 108.961 30.3196C92.1205 23.1096 103.791 7.61963 103.791 7.61963C103.791 7.61963 114.961 23.1096 98.1205 30.3196C67.7105 43.3196 34.2805 -2.68036 8.03052 11.3196C-9.49948 20.6696 7.53052 43.7996 23.7205 28.7396" stroke="#616161" stroke-miterlimit="10"/>
<path d="M81.9004 21.56C87.1704 25.26 89.2504 32.27 89.2504 32.27C89.2504 32.27 81.9504 32.69 76.6904 28.99C71.4304 25.29 70.1904 18.89 70.1904 18.89C70.1904 18.89 76.6404 17.87 81.9004 21.56Z" fill="#616161"/>
<path d="M42.7998 18.8999C48.0598 18.4199 53.0798 21.7099 53.0798 21.7099C53.0798 21.7099 48.7298 25.8399 43.4698 26.3099C40.0882 26.48 36.7542 25.4571 34.0498 23.4199C36.3488 20.9372 39.4446 19.3379 42.7998 18.8999Z" fill="#616161"/>
<path d="M25.6906 2.92975C28.9006 5.80975 29.7406 10.6398 29.7406 10.6398C29.7406 10.6398 24.8406 10.3498 21.6306 7.46975C19.6419 5.54464 18.3925 2.98217 18.1006 0.229748C20.869 0.211519 23.5556 1.16725 25.6906 2.92975Z" fill="#616161"/>
<path d="M56.2001 26.3598C56.2001 26.6683 56.1086 26.9699 55.9372 27.2265C55.7658 27.483 55.5221 27.683 55.2371 27.8011C54.952 27.9191 54.6383 27.95 54.3357 27.8898C54.0331 27.8296 53.7552 27.6811 53.537 27.4629C53.3188 27.2447 53.1702 26.9667 53.1101 26.6641C53.0499 26.3615 53.0808 26.0479 53.1988 25.7628C53.3169 25.4778 53.5168 25.2341 53.7734 25.0627C54.0299 24.8913 54.3315 24.7998 54.6401 24.7998C55.0538 24.7998 55.4506 24.9642 55.7431 25.2567C56.0357 25.5493 56.2001 25.9461 56.2001 26.3598Z" fill="#DF955F"/>
<path d="M14.2401 30.59C14.2381 30.8981 14.145 31.1987 13.9723 31.454C13.7997 31.7092 13.5554 31.9076 13.2702 32.0241C12.9849 32.1407 12.6716 32.1701 12.3697 32.1088C12.0677 32.0475 11.7907 31.8981 11.5735 31.6796C11.3563 31.461 11.2088 31.183 11.1494 30.8807C11.09 30.5784 11.1214 30.2652 11.2398 29.9807C11.3582 29.6963 11.5581 29.4532 11.8144 29.2822C12.0708 29.1113 12.372 29.02 12.6801 29.02C12.8858 29.02 13.0895 29.0607 13.2794 29.1397C13.4693 29.2187 13.6417 29.3345 13.7867 29.4805C13.9317 29.6264 14.0464 29.7995 14.1242 29.99C14.202 30.1804 14.2414 30.3843 14.2401 30.59Z" fill="#DF955F"/>
<path d="M32.8704 7.6098C32.8724 7.92074 32.782 8.22526 32.6107 8.48476C32.4394 8.74425 32.1949 8.94703 31.9082 9.0674C31.6215 9.18776 31.3055 9.22029 31.0003 9.16084C30.6951 9.1014 30.4144 8.95267 30.1939 8.73351C29.9733 8.51434 29.8228 8.23461 29.7614 7.92979C29.7 7.62497 29.7305 7.30878 29.849 7.02132C29.9676 6.73385 30.1688 6.48807 30.4272 6.31511C30.6856 6.14215 30.9895 6.04981 31.3004 6.0498C31.7151 6.0498 32.1129 6.21383 32.4071 6.5061C32.7012 6.79838 32.8678 7.19515 32.8704 7.6098Z" fill="#DF955F"/>
<path d="M19.6605 12.2097C19.6605 12.5206 19.5682 12.8246 19.3952 13.083C19.2222 13.3414 18.9765 13.5426 18.689 13.6611C18.4015 13.7796 18.0853 13.8101 17.7805 13.7487C17.4757 13.6873 17.196 13.5368 16.9768 13.3163C16.7576 13.0957 16.6089 12.815 16.5495 12.5098C16.49 12.2046 16.5225 11.8886 16.6429 11.6019C16.7633 11.3152 16.9661 11.0707 17.2256 10.8994C17.485 10.7281 17.7896 10.6377 18.1005 10.6397C18.3062 10.6397 18.5099 10.6804 18.6998 10.7594C18.8897 10.8384 19.0622 10.9542 19.2071 11.1001C19.3521 11.246 19.4668 11.4192 19.5446 11.6096C19.6225 11.8 19.6618 12.004 19.6605 12.2097Z" fill="#DF955F"/>
<path d="M7.74036 30.3401C9.33094 30.3401 10.6204 29.0507 10.6204 27.4601C10.6204 25.8695 9.33094 24.5801 7.74036 24.5801C6.14978 24.5801 4.86035 25.8695 4.86035 27.4601C4.86035 29.0507 6.14978 30.3401 7.74036 30.3401Z" fill="#DF955F"/>
<path d="M125.17 21.56C119.91 25.26 117.83 32.27 117.83 32.27C117.83 32.27 125.13 32.69 130.39 28.99C135.65 25.29 136.88 18.89 136.88 18.89C136.88 18.89 130.43 17.87 125.17 21.56Z" fill="#616161"/>
<path d="M164.27 18.8999C159.02 18.4199 154 21.7099 154 21.7099C154 21.7099 158.35 25.8399 163.6 26.3099C166.982 26.4825 170.317 25.4594 173.02 23.4199C170.723 20.9344 167.626 19.3347 164.27 18.8999Z" fill="#616161"/>
<path d="M181.39 2.92977C178.17 5.80977 177.34 10.6398 177.34 10.6398C177.34 10.6398 182.23 10.3498 185.45 7.46978C187.434 5.54114 188.682 2.98054 188.98 0.229773C186.211 0.210689 183.524 1.16652 181.39 2.92977Z" fill="#616161"/>
<path d="M150.87 26.3598C150.868 26.6708 150.959 26.9753 151.13 27.2348C151.301 27.4943 151.546 27.6971 151.832 27.8174C152.119 27.9378 152.435 27.9703 152.74 27.9109C153.045 27.8514 153.326 27.7027 153.547 27.4835C153.767 27.2644 153.918 26.9846 153.979 26.6798C154.041 26.375 154.01 26.0588 153.892 25.7713C153.773 25.4839 153.572 25.2381 153.313 25.0651C153.055 24.8922 152.751 24.7998 152.44 24.7998C152.234 24.7985 152.031 24.8379 151.84 24.9157C151.65 24.9935 151.477 25.1082 151.331 25.2532C151.185 25.3982 151.069 25.5706 150.99 25.7605C150.911 25.9505 150.87 26.1541 150.87 26.3598Z" fill="#DF955F"/>
<path d="M192.83 30.59C192.834 30.8997 192.93 31.2012 193.105 31.4568C193.28 31.7123 193.526 31.9104 193.813 32.0262C194.101 32.142 194.416 32.1702 194.719 32.1074C195.022 32.0446 195.3 31.8935 195.517 31.6731C195.735 31.4528 195.883 31.173 195.942 30.869C196 30.565 195.968 30.2504 195.849 29.9647C195.729 29.679 195.528 29.4349 195.271 29.2633C195.013 29.0916 194.71 29.0001 194.4 29C194.192 28.9987 193.986 29.039 193.793 29.1187C193.601 29.1983 193.426 29.3157 193.28 29.4639C193.134 29.6121 193.019 29.7881 192.941 29.9815C192.864 30.1749 192.826 30.3818 192.83 30.59Z" fill="#DF955F"/>
<path d="M174.21 7.60983C174.208 7.92119 174.299 8.22611 174.47 8.48583C174.642 8.74554 174.887 8.94831 175.175 9.06838C175.462 9.18844 175.778 9.22037 176.084 9.16011C176.389 9.09985 176.67 8.95014 176.89 8.72997C177.11 8.5098 177.26 8.22913 177.32 7.92365C177.381 7.61817 177.349 7.30167 177.229 7.01439C177.108 6.72711 176.906 6.48201 176.646 6.31026C176.386 6.13851 176.081 6.04786 175.77 6.04984C175.565 6.04984 175.362 6.09018 175.173 6.16858C174.984 6.24698 174.812 6.36189 174.667 6.50675C174.522 6.6516 174.407 6.82358 174.329 7.01285C174.25 7.20212 174.21 7.40497 174.21 7.60983Z" fill="#DF955F"/>
<path d="M187.42 12.2097C187.422 12.5178 187.515 12.8184 187.688 13.0736C187.86 13.3288 188.105 13.5272 188.39 13.6438C188.675 13.7603 188.988 13.7898 189.29 13.7284C189.592 13.6671 189.869 13.5178 190.087 13.2992C190.304 13.0806 190.451 12.8027 190.511 12.5003C190.57 12.198 190.539 11.8848 190.42 11.6004C190.302 11.3159 190.102 11.0728 189.846 10.9019C189.589 10.7309 189.288 10.6397 188.98 10.6396C188.774 10.6396 188.571 10.6803 188.381 10.7594C188.191 10.8384 188.018 10.9542 187.873 11.1001C187.728 11.246 187.614 11.4192 187.536 11.6096C187.458 11.8 187.419 12.004 187.42 12.2097Z" fill="#DF955F"/>
<path d="M196.46 27.4601C196.46 28.0301 196.629 28.5873 196.946 29.0612C197.263 29.535 197.713 29.9041 198.24 30.1218C198.767 30.3395 199.347 30.3959 199.906 30.284C200.464 30.1721 200.978 29.8968 201.38 29.493C201.782 29.0892 202.056 28.5751 202.166 28.0158C202.276 27.4565 202.217 26.8771 201.998 26.351C201.778 25.8249 201.408 25.3758 200.933 25.0606C200.458 24.7453 199.9 24.5781 199.33 24.5801C198.952 24.5801 198.578 24.6547 198.229 24.7995C197.88 24.9444 197.564 25.1567 197.297 25.4242C197.03 25.6918 196.819 26.0094 196.676 26.3587C196.532 26.7081 196.459 27.0824 196.46 27.4601Z" fill="#DF955F"/>
<path d="M114.21 22.4496C113.724 23.3321 113.055 24.1007 112.248 24.7043C111.441 25.3078 110.514 25.7323 109.53 25.9496C109.125 25.0278 108.921 24.0301 108.931 23.0232C108.941 22.0162 109.166 21.023 109.59 20.1096C111.07 17.1896 114.89 15.3696 114.89 15.3696C114.89 15.3696 115.69 19.5196 114.21 22.4496Z" fill="#DF955F"/>
<path d="M92.8705 22.4496C93.3555 23.3314 94.0228 24.0997 94.8281 24.7032C95.6334 25.3067 96.5581 25.7316 97.5405 25.9496C97.9493 25.029 98.1563 24.0315 98.1477 23.0242C98.1391 22.0169 97.915 21.0232 97.4905 20.1096C96.0105 17.1896 92.1905 15.3696 92.1905 15.3696C92.1905 15.3696 91.3905 19.5196 92.8705 22.4496Z" fill="#DF955F"/>
</svg>
